<svg width="30" height="28" viewBox="0 0 30 28" fill="none" xmlns="http://www.w3.org/2000/svg">
<path d="M0 1.65503H3.88076C4.32957 1.65503 4.72341 1.95405 4.84399 2.38635L9.07601 17.5585C9.1966 17.9908 9.59043 18.2898 10.0392 18.2898H24.7534C25.2057 18.2898 25.6016 17.9863 25.7191 17.5496L28.6612 6.61139C28.8321 5.97605 28.3534 5.35165 27.6955 5.35165H5.67111" stroke="#A8A8A8" stroke-width="2"/>
<path d="M15 24.0081C15 25.5026 13.8444 26.647 12.5 26.647C11.1556 26.647 10 25.5026 10 24.0081C10 22.5137 11.1556 21.3693 12.5 21.3693C13.8444 21.3693 15 22.5137 15 24.0081Z" stroke="#A8A8A8" stroke-width="2"/>
<path d="M24 24.0081C24 25.5026 22.8444 26.647 21.5 26.647C20.1556 26.647 19 25.5026 19 24.0081C19 22.5137 20.1556 21.3693 21.5 21.3693C22.8444 21.3693 24 22.5137 24 24.0081Z" stroke="#A8A8A8" stroke-width="2"/>
</svg>
